<svg id="visual" viewBox="0 0 960 540" width="960" height="540" xmlns="http://www.w3.org/2000/svg" xmlns:xlink="http://www.w3.org/1999/xlink" version="1.1"><rect x="0" y="0" width="960" height="540" fill="#140021"></rect><path d="M0 174L80 174L80 244L160 244L160 177L240 177L240 237L320 237L320 269L400 269L400 298L480 298L480 185L560 185L560 283L640 283L640 287L720 287L720 194L800 194L800 324L880 324L880 291L960 291L960 332L960 541L960 541L880 541L880 541L800 541L800 541L720 541L720 541L640 541L640 541L560 541L560 541L480 541L480 541L400 541L400 541L320 541L320 541L240 541L240 541L160 541L160 541L80 541L80 541L0 541Z" fill="#9900ff"></path><path d="M0 388L80 388L80 353L160 353L160 342L240 342L240 342L320 342L320 317L400 317L400 368L480 368L480 400L560 400L560 341L640 341L640 290L720 290L720 282L800 282L800 317L880 317L880 309L960 309L960 389L960 541L960 541L880 541L880 541L800 541L800 541L720 541L720 541L640 541L640 541L560 541L560 541L480 541L480 541L400 541L400 541L320 541L320 541L240 541L240 541L160 541L160 541L80 541L80 541L0 541Z" fill="#7700c6"></path><path d="M0 441L80 441L80 469L160 469L160 496L240 496L240 429L320 429L320 372L400 372L400 444L480 444L480 486L560 486L560 433L640 433L640 456L720 456L720 406L800 406L800 491L880 491L880 495L960 495L960 442L960 541L960 541L880 541L880 541L800 541L800 541L720 541L720 541L640 541L640 541L560 541L560 541L480 541L480 541L400 541L400 541L320 541L320 541L240 541L240 541L160 541L160 541L80 541L80 541L0 541Z" fill="#560090"></path></svg>