<svg id="visual" viewBox="0 0 960 540" width="960" height="540" xmlns="http://www.w3.org/2000/svg" xmlns:xlink="http://www.w3.org/1999/xlink" version="1.1"><rect x="0" y="0" width="960" height="540" fill="#1e0547"></rect><path d="M0 283L13.3 278.2C26.7 273.3 53.3 263.7 80 247.7C106.7 231.7 133.3 209.3 160 212C186.7 214.7 213.3 242.3 240 244.3C266.7 246.3 293.3 222.7 320 227.5C346.7 232.3 373.3 265.7 400 274.2C426.7 282.7 453.3 266.3 480 266C506.7 265.7 533.3 281.3 560 288.8C586.7 296.3 613.3 295.7 640 289.5C666.7 283.3 693.3 271.7 720 256.7C746.7 241.7 773.3 223.3 800 213.5C826.7 203.7 853.3 202.3 880 219.7C906.7 237 933.3 273 946.7 291L960 309L960 541L946.7 541C933.3 541 906.7 541 880 541C853.3 541 826.7 541 800 541C773.3 541 746.7 541 720 541C693.3 541 666.7 541 640 541C613.3 541 586.7 541 560 541C533.3 541 506.7 541 480 541C453.3 541 426.7 541 400 541C373.3 541 346.7 541 320 541C293.3 541 266.7 541 240 541C213.3 541 186.7 541 160 541C133.3 541 106.7 541 80 541C53.3 541 26.7 541 13.3 541L0 541Z" fill="#816aa3"></path><path d="M0 311L13.3 315.7C26.7 320.3 53.3 329.7 80 330.3C106.7 331 133.3 323 160 323.5C186.7 324 213.3 333 240 336.8C266.7 340.7 293.3 339.3 320 342.8C346.7 346.3 373.3 354.7 400 346.2C426.7 337.7 453.3 312.3 480 299.5C506.7 286.7 533.3 286.3 560 300.7C586.7 315 613.3 344 640 355.2C666.7 366.3 693.3 359.7 720 356.5C746.7 353.3 773.3 353.7 800 340.7C826.7 327.7 853.3 301.3 880 305.2C906.7 309 933.3 343 946.7 360L960 377L960 541L946.7 541C933.3 541 906.7 541 880 541C853.3 541 826.7 541 800 541C773.3 541 746.7 541 720 541C693.3 541 666.7 541 640 541C613.3 541 586.7 541 560 541C533.3 541 506.7 541 480 541C453.3 541 426.7 541 400 541C373.3 541 346.7 541 320 541C293.3 541 266.7 541 240 541C213.3 541 186.7 541 160 541C133.3 541 106.7 541 80 541C53.3 541 26.7 541 13.3 541L0 541Z" fill="#6b4f95"></path><path d="M0 393L13.3 395.2C26.7 397.3 53.3 401.7 80 393.8C106.7 386 133.3 366 160 356.7C186.7 347.3 213.3 348.7 240 356C266.7 363.3 293.3 376.7 320 385.2C346.7 393.7 373.3 397.3 400 405C426.7 412.7 453.3 424.3 480 425.7C506.7 427 533.3 418 560 417.3C586.7 416.7 613.3 424.3 640 415.7C666.7 407 693.3 382 720 378.7C746.7 375.3 773.3 393.7 800 403.7C826.7 413.7 853.3 415.3 880 416.5C906.7 417.7 933.3 418.3 946.7 418.7L960 419L960 541L946.7 541C933.3 541 906.7 541 880 541C853.3 541 826.7 541 800 541C773.3 541 746.7 541 720 541C693.3 541 666.7 541 640 541C613.3 541 586.7 541 560 541C533.3 541 506.7 541 480 541C453.3 541 426.7 541 400 541C373.3 541 346.7 541 320 541C293.3 541 266.7 541 240 541C213.3 541 186.7 541 160 541C133.3 541 106.7 541 80 541C53.3 541 26.7 541 13.3 541L0 541Z" fill="#553487"></path><path d="M0 458L13.3 455.8C26.7 453.7 53.3 449.3 80 443.3C106.7 437.3 133.3 429.7 160 431.3C186.7 433 213.3 444 240 456.8C266.7 469.7 293.3 484.3 320 492.2C346.7 500 373.3 501 400 493.2C426.7 485.3 453.3 468.7 480 462.3C506.7 456 533.3 460 560 467.3C586.7 474.7 613.3 485.3 640 479C666.7 472.7 693.3 449.3 720 436.3C746.7 423.3 773.3 420.7 800 432.7C826.7 444.7 853.3 471.3 880 486.7C906.7 502 933.3 506 946.7 508L960 510L960 541L946.7 541C933.3 541 906.7 541 880 541C853.3 541 826.7 541 800 541C773.3 541 746.7 541 720 541C693.3 541 666.7 541 640 541C613.3 541 586.7 541 560 541C533.3 541 506.7 541 480 541C453.3 541 426.7 541 400 541C373.3 541 346.7 541 320 541C293.3 541 266.7 541 240 541C213.3 541 186.7 541 160 541C133.3 541 106.7 541 80 541C53.3 541 26.7 541 13.3 541L0 541Z" fill="#3e1878"></path></svg>