<svg id="visual" viewBox="0 0 960 540" width="960" height="540" xmlns="http://www.w3.org/2000/svg" xmlns:xlink="http://www.w3.org/1999/xlink" version="1.1"><rect x="0" y="0" width="960" height="540" fill="#1e0547"></rect><defs><linearGradient id="grad1_0" x1="43.8%" y1="100%" x2="100%" y2="0%"><stop offset="14.444444444444446%" stop-color="#1e0547" stop-opacity="1"></stop><stop offset="85.55555555555554%" stop-color="#1e0547" stop-opacity="1"></stop></linearGradient></defs><defs><linearGradient id="grad2_0" x1="0%" y1="100%" x2="56.3%" y2="0%"><stop offset="14.444444444444446%" stop-color="#1e0547" stop-opacity="1"></stop><stop offset="85.55555555555554%" stop-color="#1e0547" stop-opacity="1"></stop></linearGradient></defs><g transform="translate(960, 540)"><path d="M-405 0C-409.8 -48.6 -414.7 -97.3 -385.2 -125.2C-355.7 -153.1 -291.8 -160.2 -263.7 -191.6C-235.7 -223 -243.4 -278.6 -223.4 -307.4C-203.3 -336.2 -155.6 -338.2 -113.7 -350C-71.9 -361.8 -35.9 -383.4 0 -405L0 0Z" fill="#816aa3"></path></g><g transform="translate(0, 0)"><path d="M405 0C372.5 35.2 340 70.4 322.4 104.8C304.8 139.1 302.1 172.7 292.9 212.8C283.6 252.8 267.9 299.4 238.1 327.7C208.2 355.9 164.1 365.8 122.1 375.7C80 385.5 40 395.3 0 405L0 0Z" fill="#816aa3"></path></g></svg>